<?xml version="1.0" encoding="utf-8"?>
<!-- Generator: Adobe Illustrator 26.0.2, SVG Export Plug-In . SVG Version: 6.00 Build 0)  -->
<svg version="1.1" id="Layer_1" xmlns="http://www.w3.org/2000/svg" xmlns:xlink="http://www.w3.org/1999/xlink" x="0px" y="0px"
	 viewBox="0 0 195 40" style="enable-background:new 0 0 195 40;" xml:space="preserve">
<style type="text/css">
	.st0{fill:#333333;}
</style>
<g>
	<path class="st0" d="M168.2,32.2c-6.1,0-12.3,0-18.5-0.1c-0.7-0.1-1.3-0.4-1.7-0.9c-1.9-1.9-3.8-3.9-5.7-5.8l-2.7-2.8l-0.6-0.6
		l-2,0.9v9.3h-3.7v-24l0,0c0.6,0,1.3,0.1,1.9,0.1c0.6,0,1.2,0,1.8-0.1v11.7l3.1-2.9l2.1-2.1c1.9-1.9,3.9-3.9,5.8-5.8
		c0.5-0.6,1.2-0.9,2-0.9h18.2c0,0,0,0.1,0,0.1c-0.1,1.2-0.1,2.4,0,3.6H152c-1.1,0-2.2,0.5-3,1.3c-1.7,1.8-3.5,3.5-5.3,5.3
		c-0.9,0.7-1.1,2-0.4,3c0.1,0.1,0.2,0.3,0.4,0.4c0.8,0.8,1.6,1.6,2.4,2.4c1,1,2.1,2.1,3.2,3.2c0.7,0.7,1.7,1,2.7,1.1
		c2.7,0,5.5,0,8.2,0s5.4,0,8.2,0h0.1c0,0,0,0,0,0.1C168.2,29.8,168.2,31,168.2,32.2z"/>
	<path class="st0" d="M97.4,32.2c0,0,0-23.9,0-24h16.7c2.3,0,4.4,1.4,5.2,3.5c1,2.5,0.4,5.3-1.5,7.1c-0.2,0.1-0.3,0.3-0.4,0.4
		l-0.8,0.9l0.9,0.8c1.7,1.3,2.7,3.3,2.8,5.4c0,1.7-0.8,3.4-2.1,4.5c-0.8,0.7-1.8,1.2-2.9,1.3c-3.7,0.1-7.5,0.1-10.6,0.1L97.4,32.2z
		 M105.3,22.1c-1.8,0-2.8,0-3.5,0.7c-0.7,0.7-0.7,1.7-0.6,3.6c-0.1,1.1,0.7,2.1,1.8,2.2c0.1,0,0.2,0,0.3,0h10.5
		c0.7,0,1.4-0.2,1.9-0.7c0.6-0.7,0.9-1.6,0.8-2.5c0-2.8-1.8-3.2-2.8-3.2L105.3,22.1z M103.5,11.9c-0.7-0.1-1.3,0.1-1.8,0.5
		c-0.6,0.6-0.6,1.3-0.5,2.3c0,0.4,0,0.8,0,1.4c-0.1,1.1,0.6,2.1,1.7,2.2c0.2,0,0.3,0,0.5,0h9.7c0.8,0.1,1.7-0.2,2.3-0.8
		c0.6-0.7,0.9-1.6,0.8-2.5c0-2.1-1.1-3.2-3.1-3.2h-7.7h-1.1L103.5,11.9z"/>
	<path class="st0" d="M173.8,32.2h-0.2c0,0,0-0.1,0-0.1c0.1-1.2,0.1-2.4,0-3.6H188c0.8,0,2.6-0.4,2.9-1.6c0.3-1.1,0.2-2.3-0.1-3.4
		c-0.3-1.1-1.9-1.4-2.5-1.4h-9.5c-3.5,0-5.9-2.4-6.4-6.3c-0.4-3.3,1.6-6.5,4.9-7.5c0.4-0.1,0.8-0.1,1.2-0.1h15.4v0.1
		c-0.1,1.1,0,2.1,0,3.3v0.4h-14.2c-0.1,0-0.2,0-0.4,0c-1.8,0-3.2,1.4-3.2,3.2c0,0.7,0.3,1.5,0.7,2c0.6,0.7,1.4,1.1,2.3,1.1
		c1.1,0,2.2,0,3.3,0h6.4c3.3,0,5.7,2.3,6.3,6c0.5,3.5-1.5,6.8-4.4,7.7c-0.6,0.1-1.2,0.2-1.8,0.2L173.8,32.2z"/>
	<path class="st0" d="M128.1,32.3c-0.7,0-1.3,0-1.9,0c-0.6,0-1.1,0-1.7,0V8.2h1.2h1.3c0.4,0,0.9,0,1.3,0v4c0,2.7,0,5.4,0,8.1
		c0,1.3,0,2.6,0,3.9c0,2.6,0,5.2,0,7.8c0,0.1,0,0.2,0,0.3H128.1L128.1,32.3z"/>
	<path class="st0" d="M152.1,22.1L152.1,22.1c0-0.9,0-1.8,0-2.7c0-0.4,0-0.8,0-1.1h14.7v3.8h-8.7l0,0h-3.6L152.1,22.1L152.1,22.1z"
		/>
	<path class="st0" d="M50.2,0.3c-1.4,1.5-2.6,2.8-3.9,4C46,4.5,45.4,4.5,45,4.5h-7.4C37.8,4.7,38,5,38.2,5.2c2,2,4,4.1,6.1,6.1
		c0.7,1,2.2,1.3,3.2,0.5c0,0,0,0,0,0c0.2-0.1,0.4-0.3,0.5-0.5c2.1-2.4,4.8-4.3,7.8-5.6C65,2.2,75.3,6.8,78.8,16c0,0,0,0,0,0
		c0.4,1.1,0.7,2.3,0.9,3.5c1.6,9.7-4.9,18.8-14.6,20.4c0,0,0,0,0,0L64.4,40c-5.5,0.8-11.1-1.2-15-5.2L27.5,13
		c-5.2-5.4-13.7-5.5-19.1-0.3S2.9,26.4,8.1,31.7c2.1,2.2,4.8,3.6,7.8,4c4,0.6,8.1-0.7,11.1-3.5c0.6-0.5,0.9-0.6,1.4,0
		c0.6,0.6,1.2,1.2,1.8,1.8c0.4,0.4,0.4,0.7,0,1.1c-3.3,3.3-7.8,5.1-12.5,5C9.1,40.2,1.8,34,0.3,25.5C-1.4,15.8,5.1,6.6,14.8,4.9
		c5.8-1,11.8,0.9,15.9,5.2c7.2,7.2,14.4,14.5,21.8,21.7c3.5,3.8,9,5.2,13.8,3.4c5-1.5,8.6-5.8,9.2-11c1-7.4-4.3-14.2-11.7-15.1
		C59.6,8.5,55.5,10,52.5,13c-0.9,0.9-1.8,1.8-2.8,2.8c-1.7,2-4.6,2.2-6.6,0.5c0,0-0.1,0-0.1-0.1c-0.2-0.1-0.3-0.3-0.4-0.4
		C38.9,12,35.1,8.2,31.4,4.5c-0.9-0.7-1.2-1.9-0.8-2.9c0.4-1,1.5-1.6,2.5-1.4H49C49.3,0.2,49.6,0.3,50.2,0.3z"/>
	<path class="st0" d="M62,31.5c-5,0-9-4-9-9v-0.3c0.1-5,4.1-9,9.1-9c5,0.1,9.1,4.1,9.1,9.2c0,5-4.1,9.1-9.1,9.1L62,31.5z M67,22.4
		c0-2.7-2.2-4.8-4.8-4.8c0,0,0,0,0,0l0,0c-2.7,0-4.8,2.2-4.9,4.8c0.1,2.6,2.2,4.7,4.8,4.8C64.8,27.2,67,25,67,22.4z"/>
	<path class="st0" d="M26.9,22.4c0.1,4.9-3.9,9-8.8,9.1h-0.3c-5,0-9.1-4-9.2-9.1l0,0c0-5.1,4.1-9.1,9.2-9.2
		C22.9,13.2,26.9,17.3,26.9,22.4C26.9,22.4,26.9,22.4,26.9,22.4L26.9,22.4L26.9,22.4z M13,22.4c0,2.7,2.2,4.8,4.8,4.8
		c2.7-0.1,4.8-2.2,4.9-4.9c0-2.7-2.2-4.8-4.9-4.8C15.2,17.5,13,19.7,13,22.4L13,22.4L13,22.4z"/>
	<path class="st0" d="M34,31.5l-3-3l3-2.9c0.7,0.8,1.6,1.7,2.4,2.6c0.1,0.2,0.1,0.5-0.1,0.7C35.7,29.8,34.8,30.7,34,31.5z"/>
</g>
</svg>
