<svg version="1.1" id="logo" xmlns="http://www.w3.org/2000/svg" xmlns:xlink="http://www.w3.org/1999/xlink"
     x="0px"
     y="0px"
     viewBox="0 0 195 40" xml:space="preserve">
  <path style="fill: var(--color-primary-text)" d="M168.3,32c-6.1,0-12.3,0-18.5-0.1c-0.7-0.1-1.3-0.4-1.7-0.9c-1.9-1.9-3.9-3.9-5.7-5.8l-2.7-2.8l-0.6-0.6l-2,0.9
	V32h-3.7V8l0,0c0.6,0,1.3,0.1,1.9,0.1s1.2,0,1.8-0.1v11.7l3.1-2.9l2.1-2.1c1.9-1.9,3.9-3.9,5.8-5.8c0.5-0.6,1.2-0.9,2-0.9h18.2
	c0,0,0,0.1,0,0.1c-0.1,1.2-0.1,2.4,0,3.6H152c-1.1,0-2.2,0.5-3,1.4c-1.7,1.8-3.5,3.5-5.3,5.3c-0.9,0.7-1.1,2-0.4,3
	c0.1,0.1,0.2,0.3,0.4,0.4c0.9,0.8,1.6,1.6,2.4,2.4c1,1,2.1,2.1,3.2,3.2c0.7,0.7,1.7,1,2.7,1.1c2.8,0,5.5,0,8.2,0s5.4,0,8.2,0h0.1
	c0,0,0,0,0,0.1C168.2,29.6,168.2,30.8,168.3,32z"/>
  <path style="fill: var(--color-primary-text)" d="M97.4,32c0,0,0-23.9,0-24h16.7c2.3,0,4.4,1.4,5.2,3.5c1,2.5,0.4,5.3-1.5,7.1c-0.2,0.1-0.3,0.3-0.4,0.4l-0.8,0.9
	l0.9,0.8c1.7,1.3,2.7,3.3,2.8,5.4c0,1.7-0.8,3.4-2.1,4.5c-0.8,0.8-1.8,1.2-2.9,1.3c-3.7,0.1-7.5,0.1-10.7,0.1L97.4,32z M105.3,21.9
	c-1.8,0-2.8,0-3.5,0.8s-0.7,1.8-0.6,3.6c-0.1,1.1,0.7,2.1,1.8,2.2c0.1,0,0.2,0,0.3,0h10.5c0.7,0,1.4-0.2,1.9-0.7
	c0.6-0.7,0.9-1.6,0.8-2.5c0-2.8-1.8-3.2-2.8-3.2H105.3z M103.5,11.7c-0.7-0.1-1.3,0.1-1.8,0.6c-0.6,0.6-0.6,1.3-0.6,2.3
	c0,0.4,0,0.8,0,1.4c-0.1,1.1,0.6,2.1,1.7,2.2c0.2,0,0.3,0,0.5,0h9.7c0.8,0.1,1.7-0.2,2.3-0.8c0.6-0.7,0.9-1.6,0.8-2.5
	c0-2.1-1.1-3.2-3.1-3.2h-7.7h-1.2L103.5,11.7z"/>
  <path style="fill: var(--color-primary-text)" d="M173.8,32h-0.2c0,0,0-0.1,0-0.1c0.1-1.2,0.1-2.4,0-3.6H188c0.8,0,2.6-0.4,2.9-1.6c0.3-1.1,0.2-2.3-0.1-3.4
	c-0.3-1.1-1.9-1.4-2.5-1.4h-9.6c-3.5,0-5.9-2.4-6.4-6.3c-0.4-3.3,1.6-6.5,4.9-7.5c0.4-0.1,0.8-0.1,1.1-0.1h15.4v0.1
	c-0.1,1.1,0,2.1,0,3.3v0.4h-14.2c-0.1,0-0.2,0-0.4,0c-1.8,0-3.2,1.4-3.2,3.2c0,0.7,0.3,1.5,0.7,2c0.6,0.7,1.4,1.1,2.3,1.1
	c1.1,0,2.2,0,3.3,0h6.4c3.3,0,5.7,2.3,6.3,6c0.5,3.5-1.5,6.9-4.4,7.7c-0.6,0.1-1.2,0.2-1.9,0.2L173.8,32z"/>
  <path style="fill: var(--color-primary-text)" d="M128.1,32.1c-0.7,0-1.3,0-1.9,0s-1.1,0-1.7,0V8h1.2h1.3c0.4,0,0.9,0,1.3,0v4.1c0,2.7,0,5.4,0,8.1
	c0,1.3,0,2.6,0,3.9c0,2.6,0,5.2,0,7.8c0,0.1,0,0.2,0,0.3H128.1L128.1,32.1z"/>
  <path style="fill: var(--color-primary-text)"
        d="M152.1,21.9L152.1,21.9c0-0.9,0-1.8,0-2.7c0-0.4,0-0.8,0-1.1h14.7v3.8h-8.7l0,0h-3.6L152.1,21.9L152.1,21.9z"/>
  <path style="fill: var(--color-primary-text)" d="M50.1,0.1c-1.4,1.5-2.6,2.8-3.9,4C46,4.3,45.4,4.3,45,4.3h-7.4C37.8,4.6,38,4.8,38.1,5c2,2,4,4.1,6.1,6.1
	c0.7,1,2.2,1.3,3.2,0.5c0,0,0,0,0,0c0.2-0.1,0.4-0.3,0.5-0.5c2.1-2.4,4.8-4.3,7.8-5.6C65,2,75.3,6.6,78.8,15.8c0,0,0,0,0,0
	c0.4,1.1,0.7,2.3,0.9,3.5c1.6,9.7-4.9,18.8-14.6,20.4c0,0,0,0,0,0l-0.8,0.1c-5.6,0.8-11.1-1.2-15-5.2L27.5,12.8
	c-5.2-5.4-13.7-5.5-19.1-0.3S2.9,26.2,8.1,31.6c2.1,2.2,4.8,3.6,7.8,4c4,0.6,8.1-0.7,11.1-3.5c0.6-0.5,0.9-0.6,1.4,0
	c0.6,0.6,1.2,1.2,1.8,1.8c0.4,0.4,0.4,0.7,0,1.1c-3.3,3.3-7.8,5.1-12.5,5C9.1,40,1.7,33.8,0.3,25.3C-1.4,15.6,5,6.4,14.7,4.7
	c5.8-1,11.8,0.9,15.9,5.2c7.2,7.2,14.5,14.5,21.8,21.7c3.5,3.8,9,5.2,13.8,3.4c5-1.5,8.6-5.8,9.2-11c1-7.4-4.3-14.2-11.7-15.1
	c-4.2-0.5-8.4,0.9-11.3,3.9c-0.9,0.9-1.8,1.9-2.8,2.8c-1.7,2-4.6,2.2-6.6,0.5c0,0-0.1,0-0.1-0.1c-0.2-0.1-0.3-0.3-0.5-0.5
	C38.8,11.8,35.1,8,31.4,4.3c-0.9-0.7-1.2-1.9-0.8-2.9c0.4-1,1.5-1.6,2.6-1.4H49C49.2,0,49.6,0.1,50.1,0.1z"/>
  <path style="fill: var(--color-primary-text)" d="M62,31.3c-5,0-9-4-9-9V22c0.1-5,4.1-9,9.1-9c5,0.1,9.1,4.1,9.1,9.2c0,5-4.1,9.1-9.2,9.1L62,31.3z M67,22.2
	c0-2.7-2.2-4.8-4.8-4.8c0,0,0,0,0,0l0,0c-2.7,0-4.8,2.2-4.9,4.8c0.1,2.6,2.2,4.7,4.8,4.8C64.8,27,67,24.9,67,22.2z"/>
  <path style="fill: var(--color-primary-text)" d="M26.9,22.2c0.1,5-3.9,9-8.9,9.1h-0.3c-5,0-9.1-4-9.2-9.1l0,0c0-5.1,4.1-9.1,9.2-9.2
	C22.8,13,26.9,17.1,26.9,22.2C26.9,22.2,26.9,22.2,26.9,22.2L26.9,22.2L26.9,22.2z M13,22.2c0,2.7,2.2,4.8,4.8,4.8
	c2.7-0.1,4.8-2.2,4.9-4.9c0-2.7-2.2-4.8-4.9-4.8C15.2,17.3,13,19.5,13,22.2L13,22.2L13,22.2z"/>
  <path style="fill: var(--color-primary-text)"
        d="M34,31.4l-3-3l3-3c0.7,0.8,1.6,1.7,2.5,2.6c0.1,0.2,0.1,0.5-0.1,0.7C35.6,29.6,34.8,30.5,34,31.4z"/>
</svg>
